<svg width="800" height="800" viewBox="0 0 800 800" fill="none" xmlns="http://www.w3.org/2000/svg">
<path d="M400 733.333C584.095 733.333 733.333 584.095 733.333 400C733.333 215.905 584.095 66.6666 400 66.6666C215.905 66.6666 66.6666 215.905 66.6666 400C66.6666 584.095 215.905 733.333 400 733.333Z" fill="white"/>
<path d="M718 500C710.762 523.255 700.922 545.619 688.667 566.667H533.333C524.493 566.667 516.014 563.155 509.763 556.904C503.512 550.652 500 542.174 500 533.333V366.667L420 426.667C414.23 430.994 407.212 433.333 400 433.333C392.788 433.333 385.77 430.994 380 426.667L300 366.667V533.333C300 542.174 296.488 550.652 290.237 556.904C283.986 563.155 275.507 566.667 266.667 566.667H111.333C99.0784 545.619 89.2383 523.255 82 500H233.333V300C233.333 293.81 235.057 287.741 238.312 282.476C241.566 277.21 246.223 272.954 251.76 270.186C257.296 267.417 263.495 266.245 269.66 266.801C275.826 267.357 281.714 269.619 286.667 273.333L400 358.333L513.333 273.333C518.286 269.619 524.174 267.357 530.34 266.801C536.505 266.245 542.704 267.417 548.24 270.186C553.777 272.954 558.434 277.21 561.688 282.476C564.943 287.741 566.667 293.81 566.667 300V500H718Z" fill="#2CA9BC"/>
</svg>
